<?xml version="1.0" encoding="utf-8"?>
<!-- Generator: Adobe Illustrator 27.5.0, SVG Export Plug-In . SVG Version: 6.00 Build 0)  -->
<svg version="1.1" id="Layer_1" xmlns="http://www.w3.org/2000/svg" xmlns:xlink="http://www.w3.org/1999/xlink" x="0px" y="0px"
	 viewBox="0 0 2364.064 2000" style="enable-background:new 0 0 2364.064 2000;" xml:space="preserve">
<rect y="0" style="fill:#FFFFFF;" width="2364.064" height="2000"/>
<g>
	<g>
		<g>
			<g>
				<path style="fill:#CAFBFF;" d="M1911.626,1513.008c-329.451,347.755-824.007,461.279-1249.836,264.182
					c-146.621-67.864-475.355-421.994-468.366-686.936c0.133-5.031,0.302-10.103,0.508-15.215
					c20.796-515.157,337.459-782.251,498.302-873.617c220.808-125.429,542.35-64.753,654.09,135.17
					c72.653,129.989,159.918,126.328,239.536,131.224c79.647,4.897,498.351,75.53,567.323,374.448
					C2217.27,1120.002,2088.777,1326.015,1911.626,1513.008z"/>
			</g>
		</g>
	</g>
	<g>
		<g>
			<g>
				<g>
					<g>
						<g>
							<path style="fill:#FFFFFF;" d="M618.268,680.485c-32.158-1.842-107.546-5.056-173.083,0.471
								c-27.114,2.286-50.524-19.373-49.915-46.576c0.249-11.134,4.243-24.087,14.577-38.764
								c39.792-56.513,108.96-2.543,108.296,26.144c0,0,13.983-43.196,56.454-35.634c42.471,7.562,27.452,70.383,27.452,70.383
								s13.705-2.896,23.206,3.589C634.597,666.477,629.561,681.132,618.268,680.485z"/>
						</g>
					</g>
				</g>
			</g>
		</g>
	</g>
	<g>
		<g>
			<g>
				<g>
					<g>
						<g>
							<g>
								<path style="fill:#3F9896;" d="M967.994,763.526c0,0-63.604-105.158-216.194-77.888
									C751.799,685.638,854.524,837.98,967.994,763.526z"/>
							</g>
						</g>
					</g>
				</g>
			</g>
		</g>
		<g>
			<g>
				<g>
					<g>
						<g>
							<g>
								<path style="fill:#7FC6A6;" d="M1067.319,791.285c0,0-18.947-210.791-275.676-283.916
									C791.644,507.369,835.467,820.739,1067.319,791.285z"/>
							</g>
						</g>
					</g>
				</g>
			</g>
		</g>
	</g>
	<g>
		<g>
			<g>
				<g>
					<g>
						<g>
							<path style="fill:#FFFFFF;" d="M715.172,388.213c34.632-1.827,153.315-6.833,234.473,5.199
								c10.527,1.561,17.232-11.056,9.95-18.816c-4.259-4.539-11.525-8.236-23.745-9.091c0,0,4.209-75.766-53.022-80.785
								c-65.638-5.756-66.433,68.681-66.433,68.681s-29.833-28.322-51.35,7.585c0,0-37.186-21.492-55.943,18.204
								C707.056,383.518,710.391,388.465,715.172,388.213z"/>
						</g>
					</g>
				</g>
			</g>
		</g>
	</g>
	<g>
		<g>
			<g>
				<g>
					<path style="fill:#F7AB48;" d="M1738.27,932.183c-12.567,11.848-22.891,25.49-30.776,40.305l-41.442-3.205l-7.289,27.471
						l-7.289,27.471l37.58,17.761c-0.497,16.775,1.707,33.741,6.747,50.261l-31.575,27.042l14.271,24.579l14.271,24.579
						l39.138-14.016c11.848,12.567,25.49,22.891,40.305,30.776l-3.205,41.443l27.471,7.289l27.471,7.289l17.762-37.581
						c16.775,0.497,33.741-1.707,50.26-6.747l27.042,31.575l24.579-14.271l24.579-14.271l-14.016-39.138
						c12.567-11.848,22.891-25.49,30.776-40.305l41.443,3.205l7.289-27.471l7.289-27.471l-37.581-17.762
						c0.497-16.775-1.707-33.741-6.747-50.26l31.575-27.042l-14.271-24.579l-14.271-24.579l-39.138,14.016
						c-11.848-12.567-25.49-22.891-40.305-30.776l3.205-41.443l-27.471-7.289l-27.471-7.289l-17.762,37.581
						c-16.775-0.497-33.741,1.707-50.26,6.747l-27.042-31.575l-24.579,14.271l-24.579,14.271L1738.27,932.183z M1902.798,956.114
						c49.912,31.251,65.04,97.047,33.789,146.96c-31.251,49.912-97.048,65.04-146.96,33.788
						c-49.912-31.251-65.04-97.047-33.789-146.96C1787.09,939.99,1852.886,924.863,1902.798,956.114z"/>
				</g>
			</g>
		</g>
		<g>
			<g>
				<g>
					<path d="M2000.049,923.458l29.276,50.421l-31.695,27.144c4.893,16.247,7.119,33.063,6.618,49.993
						c-0.014,0.484-0.418,0.865-0.903,0.85c-0.484-0.012-0.865-0.418-0.85-0.903c0.5-16.929-1.757-33.743-6.709-49.978l-0.168-0.549
						l31.456-26.94l-27.809-47.895l-38.99,13.964l-0.394-0.418c-11.642-12.348-25.127-22.644-40.079-30.603
						c-0.427-0.229-0.59-0.76-0.362-1.186c0.227-0.428,0.759-0.59,1.186-0.362c14.953,7.958,28.45,18.227,40.136,30.532
						L2000.049,923.458z M1896.496,858.354c0.263,0.211,0.391,0.564,0.299,0.909c-0.124,0.468-0.604,0.747-1.073,0.623
						l-26.765-7.102l-17.695,37.44l-0.574-0.017c-16.928-0.501-33.743,1.757-49.978,6.709l-0.549,0.168l-26.94-31.456
						l-47.895,27.808l13.963,38.991l-0.417,0.394c-12.35,11.645-22.647,25.129-30.603,40.079l-0.27,0.506l-41.287-3.193
						l-14.39,54.237c-0.125,0.468-0.605,0.747-1.073,0.623c-0.47-0.124-0.747-0.605-0.623-1.073l14.764-55.649l41.6,3.218
						c7.918-14.748,18.095-28.076,30.261-39.629l-14.069-39.287l50.42-29.276l27.145,31.695c16.063-4.838,32.683-7.069,49.418-6.635
						l17.828-37.723l28.178,7.476C1896.295,858.223,1896.404,858.28,1896.496,858.354z M2034.211,1095.539
						c0.262,0.211,0.391,0.563,0.299,0.909l-7.475,28.177l-41.6-3.217c-7.92,14.75-18.097,28.078-30.261,39.629l14.069,39.287
						l-50.421,29.276l-27.145-31.695c-16.063,4.837-32.682,7.069-49.418,6.634l-17.83,37.722l-28.177-7.476
						c-0.471-0.123-0.747-0.605-0.623-1.073c0.125-0.468,0.605-0.747,1.073-0.623l26.765,7.101l17.696-37.439l0.574,0.017
						c16.929,0.501,33.744-1.756,49.978-6.709l0.549-0.167l26.94,31.456l47.895-27.809l-13.963-38.991l0.417-0.394
						c12.349-11.642,22.645-25.127,30.603-40.078l0.27-0.507l41.286,3.192l7.101-26.765c0.124-0.468,0.605-0.747,1.073-0.623
						C2034.01,1095.408,2034.119,1095.465,2034.211,1095.539z M1937.137,1102.391c0.342,0.275,0.432,0.768,0.194,1.149
						c-31.458,50.242-97.927,65.524-148.169,34.066c-24.337-15.235-41.286-39.043-47.721-67.029
						c-6.434-27.985-1.586-56.801,13.653-81.139c0.257-0.411,0.798-0.535,1.209-0.278c0.413,0.261,0.535,0.799,0.278,1.209
						c-14.99,23.941-19.76,52.287-13.431,79.816c6.329,27.529,23.003,50.948,46.942,65.935
						c49.422,30.945,114.806,15.912,145.751-33.51c0.257-0.411,0.798-0.535,1.209-0.278
						C1937.083,1102.349,1937.111,1102.369,1937.137,1102.391z M1696.351,1091.563c0.042,0.034,0.081,0.071,0.117,0.114
						c0.315,0.368,0.272,0.922-0.096,1.236l-31.021,26.567l27.81,47.895l38.99-13.964l0.394,0.418
						c11.643,12.351,25.127,22.646,40.078,30.604c0.428,0.224,0.59,0.759,0.362,1.186c-0.227,0.428-0.758,0.59-1.186,0.362
						c-14.952-7.958-28.452-18.228-40.136-30.531l-39.286,14.069l-29.276-50.421l32.13-27.516
						C1695.557,1091.302,1696.028,1091.304,1696.351,1091.563z"/>
				</g>
			</g>
		</g>
	</g>
	<g>
		<g>
			<g>
				<g>
					<g>
						<path style="fill:#4CB7D8;" d="M1808.371,659.835c-1.375,7.163-1.539,14.385-0.577,21.407l-14.982,9.145l4.294,11.208
							l4.293,11.208l17.257-3.206c3.976,5.867,8.923,11.132,14.732,15.542l-4.129,17.063l10.961,4.889l10.961,4.889l9.937-14.472
							c7.163,1.375,14.385,1.539,21.407,0.577l9.145,14.982l11.208-4.294l11.208-4.293l-3.206-17.258
							c5.867-3.976,11.131-8.923,15.542-14.732l17.063,4.129l4.889-10.961l4.889-10.961l-14.472-9.937
							c1.375-7.163,1.538-14.385,0.577-21.407l14.982-9.145l-4.293-11.208l-4.293-11.208l-17.258,3.206
							c-3.976-5.867-8.923-11.132-14.732-15.542l4.128-17.063l-10.961-4.889l-10.961-4.889l-9.937,14.472
							c-7.162-1.375-14.386-1.539-21.407-0.577l-9.145-14.982l-11.208,4.294l-11.208,4.293l3.206,17.258
							c-5.866,3.976-11.131,8.923-15.542,14.732l-17.063-4.128l-4.889,10.961l-4.889,10.961L1808.371,659.835z M1891.923,631.176
							c22.711,10.13,32.91,36.753,22.78,59.464c-10.13,22.711-36.753,32.91-59.464,22.78c-22.711-10.13-32.91-36.753-22.78-59.464
							C1842.589,631.245,1869.212,621.046,1891.923,631.176z"/>
					</g>
				</g>
			</g>
		</g>
		<g>
			<g>
				<g>
					<g>
						<path d="M1907.293,596.917c0.294,0.175,0.417,0.547,0.274,0.867c-0.154,0.346-0.559,0.5-0.904,0.346l-10.44-4.657
							l-9.869,14.371l-0.44-0.084c-7.005-1.345-14.133-1.537-21.185-0.572l-0.444,0.061l-9.081-14.878l-21.351,8.18l3.183,17.138
							l-0.37,0.252c-5.893,3.993-11.068,8.898-15.381,14.579c-0.229,0.301-0.653,0.356-0.96,0.131
							c-0.301-0.229-0.36-0.659-0.131-0.96c4.313-5.68,9.47-10.601,15.333-14.631l-3.228-17.379l23.479-8.995l9.209,15.088
							c6.907-0.899,13.88-0.711,20.744,0.559l10.007-14.574l11.482,5.121C1907.245,596.891,1907.27,596.904,1907.293,596.917z
							 M1946.199,631.016l4.497,11.741c0.135,0.352-0.042,0.748-0.395,0.884c-0.352,0.134-0.748-0.041-0.884-0.395l-4.089-10.675
							l-17.138,3.183l-0.252-0.37c-3.993-5.893-8.898-11.068-14.579-15.38c-0.301-0.229-0.36-0.659-0.131-0.96
							c0.229-0.301,0.651-0.363,0.96-0.131c5.68,4.313,10.601,9.47,14.632,15.332L1946.199,631.016z M1939.718,662.765
							c0.173,0.103,0.299,0.281,0.328,0.495c0.966,7.052,0.798,14.178-0.5,21.188l14.573,10.007l-10.243,22.963l-17.183-4.157
							c-4.258,5.53-9.321,10.329-15.06,14.275l3.228,17.379l-23.48,8.994l-9.21-15.088c-6.909,0.899-13.882,0.711-20.744-0.559
							l-10.006,14.573l-11.482-5.121c-0.347-0.15-0.5-0.559-0.346-0.904c0.154-0.346,0.559-0.5,0.904-0.347l10.44,4.657
							l9.868-14.371l0.44,0.084c7.003,1.345,14.131,1.537,21.185,0.571l0.444-0.061l9.081,14.878l21.351-8.179l-3.183-17.137
							l0.37-0.252c5.892-3.993,11.066-8.897,15.38-14.579l0.271-0.357l16.944,4.1l9.314-20.881l-14.371-9.868l0.084-0.44
							c1.345-7.005,1.537-14.132,0.571-21.184c-0.051-0.375,0.211-0.72,0.585-0.771
							C1939.435,662.653,1939.589,662.688,1939.718,662.765z M1915.054,690.052c0.294,0.175,0.417,0.547,0.274,0.867
							c-10.268,23.019-37.349,33.393-60.368,23.126c-11.151-4.974-19.697-13.992-24.065-25.394
							c-4.368-11.402-4.034-23.822,0.939-34.973c0.154-0.346,0.559-0.5,0.904-0.347c0.348,0.154,0.5,0.559,0.347,0.904
							c-4.825,10.817-5.148,22.865-0.911,33.926c4.238,11.06,12.527,19.813,23.344,24.633c22.329,9.96,48.6-0.103,58.56-22.433
							c0.154-0.346,0.559-0.5,0.904-0.346C1915.006,690.026,1915.031,690.039,1915.054,690.052z M1799.14,638.349
							c0.294,0.175,0.417,0.547,0.274,0.867l-4.657,10.441l14.371,9.868l-0.084,0.44c-1.345,7.005-1.537,14.133-0.572,21.185
							l0.061,0.444l-14.878,9.081l8.18,21.351l17.137-3.183l0.252,0.37c3.994,5.893,8.898,11.068,14.578,15.381
							c0.301,0.229,0.36,0.659,0.131,0.96c-0.228,0.3-0.656,0.358-0.96,0.131c-5.679-4.314-10.6-9.47-14.631-15.333l-17.379,3.228
							l-8.995-23.48l15.088-9.21c-0.899-6.907-0.711-13.881,0.559-20.744l-14.573-10.007l5.121-11.481
							c0.154-0.346,0.559-0.5,0.904-0.346C1799.092,638.323,1799.116,638.336,1799.14,638.349z"/>
					</g>
				</g>
			</g>
		</g>
	</g>
	<path style="fill:#21111D;" d="M1704.833,766.723v835.021H498.888V766.723c0-19.876,16.109-35.985,35.985-35.985h1133.975
		C1688.724,730.738,1704.833,746.847,1704.833,766.723z"/>
	<path style="fill:#3AA1C9;" d="M1668.385,797.194v771.335H528.256V797.194c0-18.36,14.88-33.24,33.24-33.24h1073.649
		C1653.505,763.953,1668.385,778.834,1668.385,797.194z"/>
	<path style="opacity:0.38;fill:#FFFFFF;" d="M1668.385,1289.147c-65.309-42.737-131.65-19.893-155.249,47.597
		c-3.174-37.714-62.714-77.489-117.925-11.112c21.525-77.377-51.477-139.377-122.257-101.952c0,0,0-122.994-110.218-102.425
		c0,0,13.073-13.236,11.5-66c0,0-21.08,10.336-118.798-71.706c0,0-30.702,31.706-43.8,78.308c0,0-76.922-26.849-92.902,71.911
		c0,0-81.516-30.081-72,87.488c0,0-120.51-65.162-134,82.964c-38-83.035-169.034-114.964-182,11.036c0,0-0.871,1.176-2.479,3.429
		v249.845h1140.129V1289.147z"/>
	<g>
		<path style="fill:#FFFFFF;" d="M1234.067,1405.729H914.986c-22.057,0-39.938-17.881-39.938-39.938v-95.241
			c0-22.057,17.881-39.938,39.938-39.938h319.081c22.057,0,39.938,17.881,39.938,39.938v95.241
			C1274.005,1387.848,1256.124,1405.729,1234.067,1405.729z"/>
		<g>
			<path style="fill:#FF424D;" d="M996.307,1278.786c-4.554-3.088-8.888-5.366-12.997-6.832c-4.111-1.465-8.181-2.199-12.211-2.199
				c-6.651,0-12.094,1.951-16.336,5.851c-4.24,3.901-6.361,8.809-6.361,14.725c0,4.818,1.362,8.744,4.083,11.78
				c2.723,3.037,8.587,6.467,17.592,10.288c0.524,0.21,1.307,0.524,2.357,0.942c10.156,4.136,16.936,8.116,20.338,11.937
				c2.357,2.566,4.15,5.497,5.381,8.796c1.229,3.298,1.846,6.807,1.846,10.524c0,8.744-3.037,15.93-9.11,21.557
				c-6.075,5.629-13.85,8.442-23.325,8.442c-4.764,0-9.49-0.812-14.175-2.434c-4.685-1.622-9.412-4.057-14.175-7.304v-10.68
				c5.185,4.032,10.092,7.029,14.725,8.992c4.633,1.963,9.122,2.945,13.468,2.945c7.173,0,12.853-1.963,17.043-5.89
				c4.188-3.927,6.283-9.267,6.283-16.021c0-4.973-1.427-9.044-4.281-12.212c-2.854-3.167-9.357-6.872-19.515-11.113
				c-10.523-4.345-17.722-8.73-21.595-13.154c-3.875-4.424-5.813-10.064-5.813-16.924c0-8.533,2.946-15.51,8.836-20.929
				c5.89-5.419,13.573-8.128,23.05-8.128c4.292,0,8.48,0.589,12.565,1.767c4.083,1.178,8.192,2.998,12.329,5.458V1278.786z"/>
			<path style="fill:#FF424D;" d="M1026.543,1355.199c0,4.869,0.666,8.089,2.001,9.659c1.335,1.571,3.731,2.356,7.186,2.356
				c1.781,0,3.64-0.301,5.577-0.903c1.936-0.601,4.109-1.531,6.516-2.788v7.932c-2.25,0.995-4.463,1.74-6.636,2.238
				c-2.172,0.497-4.358,0.746-6.557,0.746c-6.021,0-10.261-1.439-12.722-4.319c-2.461-2.879-3.69-7.905-3.69-15.078v-47.827h-15.471
				v-6.754h15.786v-16.57l6.125-7.068h1.885v23.638h19.476v6.754h-19.476V1355.199z"/>
			<path style="fill:#FF424D;" d="M1094.631,1365.958c-4.032,3.09-7.788,5.301-11.271,6.636c-3.483,1.335-7.134,2.002-10.955,2.002
				c-5.968,0-10.812-1.728-14.529-5.183c-3.718-3.455-5.576-7.932-5.576-13.429c0-8.01,3.625-14.319,10.876-18.927
				c7.251-4.606,17.682-7.198,31.297-7.775v-7.696c0-5.445-1.296-9.41-3.888-11.898c-2.59-2.486-6.714-3.73-12.369-3.73
				c-3.509,0-7.042,0.707-10.601,2.12c-3.561,1.414-7.437,3.665-11.624,6.754v-7.932c4.085-2.722,7.998-4.738,11.74-6.047
				c3.745-1.308,7.448-1.963,11.114-1.963c8.325,0,14.346,1.924,18.062,5.772c3.716,3.848,5.575,10.119,5.575,18.809v38.01
				c0,1.571,0.21,2.737,0.628,3.495c0.419,0.76,1.074,1.139,1.964,1.139c1.257,0,3.428-1.361,6.518-4.084
				c0.733-0.68,1.283-1.178,1.65-1.492l0.079,7.303c-2.357,2.199-4.528,3.848-6.518,4.948c-1.99,1.1-3.744,1.649-5.261,1.649
				c-2.306,0-3.993-0.667-5.067-2.002C1095.402,1371.102,1094.789,1368.942,1094.631,1365.958z M1094.474,1358.419v-22.696
				c-10.472,0.157-18.745,2.042-24.818,5.655s-9.109,8.377-9.109,14.293c0,3.718,1.255,6.65,3.769,8.796
				c2.514,2.147,5.968,3.22,10.365,3.22c2.985,0,6.075-0.746,9.268-2.238C1087.143,1363.955,1090.651,1361.613,1094.474,1358.419z"
				/>
			<path style="fill:#FF424D;" d="M1124.868,1373.026v-72.565h8.087v17.906c4.504-6.911,8.611-11.831,12.329-14.764
				c3.718-2.932,7.592-4.398,11.624-4.398c2.198,0,4.332,0.445,6.4,1.335c2.067,0.891,4.227,2.278,6.479,4.162l-4.397,7.697
				c-2.199-1.779-4.203-3.089-6.007-3.927c-1.807-0.837-3.548-1.256-5.224-1.256c-3.247,0-6.544,1.571-9.896,4.712
				c-3.35,3.141-7.118,8.22-11.308,15.235v45.864H1124.868z"/>
			<path style="fill:#FF424D;" d="M1188.557,1355.199c0,4.869,0.668,8.089,2.003,9.659c1.335,1.571,3.729,2.356,7.186,2.356
				c1.779,0,3.638-0.301,5.575-0.903c1.936-0.601,4.109-1.531,6.518-2.788v7.932c-2.252,0.995-4.465,1.74-6.636,2.238
				c-2.173,0.497-4.358,0.746-6.557,0.746c-6.021,0-10.263-1.439-12.722-4.319c-2.461-2.879-3.69-7.905-3.69-15.078v-47.827h-15.472
				v-6.754h15.784v-16.57l6.125-7.068h1.885v23.638h19.476v6.754h-19.476V1355.199z"/>
		</g>
	</g>
	<g>
		<g>
			<g>
				<path style="fill:#4CB7D8;" d="M596.202,792.326c0,3.613-2.928,6.541-6.541,6.541c-3.612,0-6.541-2.928-6.541-6.541
					c0-3.612,2.928-6.541,6.541-6.541C593.274,785.786,596.202,788.714,596.202,792.326z"/>
			</g>
		</g>
		<g>
			<g>
				<path style="fill:#4CB7D8;" d="M616.438,792.326c0,3.613-2.928,6.541-6.541,6.541c-3.612,0-6.541-2.928-6.541-6.541
					c0-3.612,2.928-6.541,6.541-6.541C613.51,785.786,616.438,788.714,616.438,792.326z"/>
			</g>
		</g>
		<g>
			<g>
				<path style="fill:#4CB7D8;" d="M636.674,792.326c0,3.613-2.929,6.541-6.541,6.541c-3.612,0-6.541-2.928-6.541-6.541
					c0-3.612,2.928-6.541,6.541-6.541C633.745,785.786,636.674,788.714,636.674,792.326z"/>
			</g>
		</g>
	</g>
	<g>
		<g>
			<g>
				<path style="fill:#4CB7D8;" d="M1560.493,783.169v4.667h-2.641v8.013h2.641v5.635h51.421v-18.314H1560.493z M1610.153,799.987
					h-47.899v-15.321h47.899V799.987z"/>
			</g>
		</g>
		<g>
			<g>
				<rect x="1602.156" y="787.053" style="fill:#4CB7D8;" width="5.08" height="10.47"/>
			</g>
		</g>
		<g>
			<g>
				<rect x="1593.636" y="787.053" style="fill:#4CB7D8;" width="5.08" height="10.47"/>
			</g>
		</g>
		<g>
			<g>
				<rect x="1584.882" y="787.053" style="fill:#4CB7D8;" width="5.08" height="10.47"/>
			</g>
		</g>
	</g>
	<g>
		<g>
			<path style="fill:#FE9F73;" d="M1952.457,1648.255c0.348,1.016,0.693,2.067,1.026,3.147c3.33,10.735,5.663,23.915,1.423,33.134
				l-3.863,5.495c-0.007,0.003-0.011,0.013-0.019,0.016l-1.624,2.299c-0.007,0.003-0.004,0.01-0.001,0.017l-94.289,133.848
				c0,0-0.007,0.003-0.004,0.01c-20.294,28.801-64.734,19.001-84.952,12.617c-0.044-0.007-0.084-0.024-0.124-0.041
				c-3.338-1.209-6.751-2.42-10.229-3.648c-0.02-0.008-0.03-0.013-0.03-0.013c-42.81-15.121-95.202-31.961-127.254-36.302
				c-40.704-5.507-108.422-34.233-153.413-55.374c-1.078-0.51-2.147-1.016-3.205-1.517c-3.609-1.703-7.051-3.357-10.303-4.93
				c-1.094-0.529-2.161-1.051-3.208-1.566c-14.307-6.979-24.449-12.311-27.784-14.338c-5.15-3.142-20.5-10.48-37.417-18.314
				c-18.414-8.524-38.689-17.633-49.688-22.549c-1.197-0.537-2.283-1.027-3.248-1.459c-0.179-0.077-0.348-0.15-0.511-0.225
				c-2.821-1.259-4.446-1.979-4.446-1.979c-17.578-20.79,11.66-59.434,50.32-59.705c38.661-0.271,120.903,28.415,120.903,28.415
				s-245.443-228.096-264.958-245.637c-24.987-22.461-20.335-54.662,9.771-62.055c18.331-4.498,131.559,80.415,131.559,80.415
				l103.419,78.308l1.694,1.287c-6.657-50.436,45.233-66.099,45.233-66.099c18.621-29.354,57.437-39.796,57.437-39.796
				s5.963-12.49,48.268-31.076c42.301-18.576,123.912,105.592,144.974,126.675
				C1804.799,1504.217,1910.955,1607.789,1952.457,1648.255z"/>
		</g>
		<g>
			<g>
				<g>
					<path d="M1473.829,1713.099c0.041,0.33-0.022,0.669-0.183,0.989c-3.834,7.406-6.407,16.026-8.049,22.929
						c-1.094-0.528-2.161-1.051-3.208-1.566c1.69-6.947,4.304-15.467,8.179-22.956c0.443-0.854,1.482-1.186,2.333-0.75
						C1473.441,1712.025,1473.77,1712.537,1473.829,1713.099z"/>
				</g>
			</g>
			<g>
				<g>
					<path d="M1486.704,1722.135c0.031,0.326-0.022,0.669-0.186,0.982c-3.359,6.507-5.763,13.962-7.413,20.348
						c-1.078-0.51-2.147-1.016-3.206-1.518c1.68-6.414,4.121-13.817,7.533-20.42c0.446-0.846,1.492-1.182,2.343-0.746
						C1486.309,1721.063,1486.638,1721.576,1486.704,1722.135z"/>
				</g>
			</g>
		</g>
		<g>
			<g>
				<g>
					<path style="fill:#F07162;" d="M1341.646,1689.997c0.041,0.041,0.09,0.08,0.145,0.115c-0.055-0.036-0.101-0.067-0.149-0.105
						C1341.642,1690.007,1341.639,1690,1341.646,1689.997z"/>
				</g>
				<g>
					<path style="fill:#F07162;" d="M1397.041,1685.28c1.495,6.45,0.832,13.325,0.147,17.519
						c-18.415-8.524-38.689-17.633-49.688-22.55c-1.197-0.537-2.284-1.027-3.248-1.459c0.763-2.698,1.658-5.457,2.687-8.252
						c1.78-4.821,7.305-7.497,12.78-6.35c0.267,0.05,0.531,0.11,0.792,0.187l29.491,8.136
						C1390.002,1672.511,1394.672,1675.069,1397.041,1685.28z"/>
				</g>
			</g>
			<g>
				<g>
					<path style="fill:#FDC9BC;" d="M1359.768,1664.185c-0.017-0.001-0.034-0.003-0.048,0.003c-3.773,0.079-8.164,3.755-9.41,7.125
						c-1.119,3.046-2.047,6.033-2.81,8.937c-1.197-0.537-2.284-1.027-3.248-1.459c-0.179-0.077-0.349-0.149-0.511-0.225
						c0.709-2.585,1.55-5.232,2.546-7.924c1.571-4.25,7.574-8.083,12.378-6.758L1359.768,1664.185z"/>
				</g>
			</g>
		</g>
		<g>
			<g>
				<path style="fill:#F07162;" d="M1262.22,1345.509c-2.741-2.142-6.871-1.648-9.373,1.233l-15.713,18.097
					c-2.631,3.03-2.464,7.245,0.286,9.555l-0.013,0.015l0.284,0.212l24.988,18.662l0.249,0.186l0.012-0.014
					c2.608,1.711,6.434,0.84,8.725-2.008l13.715-17.047c2.188-2.72,2.181-6.48,0.028-8.602l0.011-0.014l-0.227-0.198l-22.701-19.866
					l-0.258-0.225L1262.22,1345.509z"/>
			</g>
			<g>
				<path style="fill:#FDC9BC;" d="M1262.22,1345.509c-2.741-2.141-6.871-1.648-9.373,1.233l-15.713,18.097
					c-2.631,3.03-2.464,7.245,0.286,9.555l-0.013,0.015l0.284,0.212l2.291,1.711l0.013-0.015c-2.713-2.281-2.871-6.462-0.267-9.479
					l15.559-18.022c2.478-2.87,6.562-3.377,9.268-1.264l0.012-0.014l-2.078-1.818l-0.258-0.225L1262.22,1345.509z"/>
			</g>
		</g>
		<g>
			<g>
				<g>
					<g>
						<path d="M1739.886,1785.33c0.259,0.542,0.79,0.936,1.431,0.993c21.566,1.907,51.824-14.652,53.101-15.358
							c0.849-0.47,1.151-1.535,0.688-2.388c-0.469-0.849-1.538-1.158-2.387-0.689c-0.304,0.168-30.599,16.746-51.093,14.934
							c-0.967-0.085-1.82,0.629-1.904,1.596C1739.692,1784.743,1739.754,1785.055,1739.886,1785.33z"/>
					</g>
				</g>
			</g>
			<g>
				<g>
					<g>
						<path d="M1720.632,1770.557c0.203,0.423,0.573,0.765,1.056,0.917c20.649,6.515,53.765-3.127,55.164-3.54
							c0.931-0.275,1.463-1.252,1.187-2.183c-0.273-0.934-1.252-1.463-2.182-1.188c-0.332,0.098-33.49,9.75-53.111,3.559
							c-0.926-0.292-1.913,0.222-2.204,1.147C1720.401,1769.713,1720.446,1770.169,1720.632,1770.557z"/>
					</g>
				</g>
			</g>
		</g>
		<g>
			<path d="M1433.807,1722.421c-4.404-2.687-16.941-8.821-37.263-18.231c-18.621-8.62-39.112-17.823-49.669-22.542l-3.249-1.46
				c-0.17-0.071-0.354-0.151-0.531-0.233c-2.797-1.248-4.422-1.969-4.422-1.969l-0.321-0.143l-0.227-0.269
				c-6.513-7.704-7.36-18.406-2.323-29.361c7.446-16.197,28.316-32.689,53.803-32.866c32.425-0.228,94.02,19.329,114.622,26.194
				c-35.763-33.23-242-224.838-259.69-240.743c-13.26-11.922-19.125-27.217-15.69-40.915c2.947-11.753,12.466-20.419,26.12-23.769
				l0.731,2.977c-12.511,3.076-21.215,10.923-23.878,21.538c-3.154,12.577,2.365,26.741,14.765,37.889
				c19.299,17.35,262.523,243.373,264.977,245.655l5.357,4.978l-6.905-2.408c-0.82-0.286-82.436-28.596-120.388-28.33
				c-24.205,0.169-43.997,15.765-51.04,31.081c-4.527,9.846-3.935,19.005,1.658,25.835c0.607,0.27,2.038,0.907,4.122,1.836
				c0.169,0.078,0.323,0.144,0.487,0.214l3.275,1.471c10.562,4.72,31.067,13.93,49.704,22.557
				c20.428,9.46,33.069,15.649,37.572,18.396L1433.807,1722.421z"/>
		</g>
		<polygon style="fill:#F07162;" points="1492.178,1496.955 1521.911,1517.949 1492.01,1483.797 		"/>
		<polygon style="fill:#F07162;" points="1538.227,1432.818 1584.167,1467.375 1542.701,1424.387 1537.682,1431.166 		"/>
		<polygon style="fill:#F07162;" points="1594.906,1393.09 1639.114,1425.054 1600.301,1386.426 		"/>
		<g>
			<path d="M1951.293,1644.99c0.391,1.041,0.777,2.132,1.164,3.265c0.348,1.016,0.693,2.067,1.026,3.147
				c-39.924-38.934-149.585-145.91-166.651-163.001c-4.684-4.682-12.172-14.218-21.663-26.289
				c-16.56-21.073-39.249-49.931-61.722-71.49c-25.651-24.598-45.59-34.295-59.269-28.832c-0.206,0.082-0.413,0.165-0.617,0.254
				c-24.768,10.881-36.945,19.672-42.701,24.933c-3.752,3.437-4.781,5.367-4.809,5.419l-0.309,0.61l-0.666,0.192
				c0,0-0.007,0.003-0.014,0.006c-0.894,0.241-32.323,9.095-51.43,32.149c-1.824,2.189-3.533,4.522-5.099,6.987l-0.305,0.477
				l-0.544,0.168c-0.134,0.037-12.894,3.977-24.651,13.904c-12.337,10.415-19.026,23.194-19.975,38.114
				c-0.256,3.989-0.097,8.126,0.468,12.414l-0.588,0.078l-0.935,0.118l-1.52,0.203c-0.068-0.501-0.126-0.998-0.174-1.49
				c-2.877-25.885,9.67-42.449,20.829-51.848c10.976-9.235,22.453-13.373,25.106-14.251c17.758-27.507,52.219-38.314,57.422-39.814
				c1.822-2.857,11.156-14.696,48.661-31.167c0.236-0.111,0.485-0.21,0.727-0.307c34.191-13.654,90.677,58.219,124.525,101.279
				c9.426,11.99,16.864,21.463,21.424,26.021C1805.478,1502.733,1908.321,1603.073,1951.293,1644.99z"/>
		</g>
	</g>
	<g>
		<path style="fill:#FE9F73;" d="M613.228,1199.628c-0.84,2.277-1.689,4.535-2.529,6.776c-14.04,37.566-26.806,69.295-29.353,79.215
			c-0.145,0.569-0.253,1.066-0.334,1.491c-3.695,20.301,36.906,174.395,26.752,238.052
			c-8.104,50.828-85.015,158.132-115.697,199.321c-34.937,14.871-136.422-46.293-170.293-61.182
			c-20.237-8.899-23.851-24.032-23.183-35.461l53.593-88.837c0,0-2.765-248.198,5.538-314.629c0.208-1.662,0.497-3.397,0.858-5.195
			c0.199-1.003,0.425-2.024,0.668-3.063c0,0,0.009-0.009,0.009-0.018c16.94-71.545,139.322-232.55,139.322-232.55v0.488
			l0.127,88.557v0.009l0.181,130.55c0,0,97.808-158.702,101.495-164.24c2.096-3.135,11.13-10.516,22.189-11.248
			c7.625-0.515,16.217,2.159,24.131,11.591c0.876,1.03,1.735,2.15,2.584,3.352c2.159,3.045,3.207,7.779,3.352,13.85
			C653.351,1086.045,632.589,1147.39,613.228,1199.628z"/>
		<polygon style="fill:#F07162;" points="463.826,1258.972 498.705,1072.588 498.888,1203.149 		"/>
		<path style="fill:#DCF4FF;" d="M1668.385,797.194V820.7H528.256v-23.506c0-18.36,14.88-33.24,33.24-33.24h1073.649
			C1653.505,763.953,1668.385,778.834,1668.385,797.194z"/>
		<g>
			<path d="M493.669,1725.677l-3.208-2.389c32.015-42.979,107.339-148.35,115.325-198.441
				c6.361-39.876-7.458-116.069-17.549-171.704c-6.166-33.995-10.621-58.557-9.195-66.392c0.091-0.475,0.207-1.012,0.363-1.625
				c1.775-7.03,8.422-24.384,16.838-46.354c3.829-9.997,8.169-21.328,12.582-33.072l0.268-0.714c0.751-2.002,1.508-4.02,2.258-6.051
				c17.736-47.552,41.102-114.037,39.289-142.351c-0.172-2.73-0.581-5.039-1.213-6.863c-1.242-3.593-2.726-6.751-4.412-9.39
				c-5.314-8.355-12.772-11.953-22.18-10.687c-10.649,1.424-19.451,8.365-20.791,10.375l-3.328-2.219
				c2.291-3.436,12.411-10.626,23.588-12.121c7.619-1.024,18.333,0.313,26.084,12.501c1.853,2.9,3.475,6.344,4.819,10.231
				c0.761,2.194,1.227,4.784,1.425,7.918c1.862,29.077-21.669,96.106-39.531,143.996c-0.75,2.031-1.509,4.056-2.263,6.064
				l-0.268,0.714c-4.417,11.758-8.759,23.095-12.591,33.098c-8.369,21.846-14.978,39.102-16.696,45.905
				c-0.134,0.527-0.234,0.984-0.309,1.376c-1.292,7.103,3.569,33.907,9.198,64.944c10.142,55.917,24.032,132.499,17.564,173.048
				C601.61,1576.444,525.86,1682.462,493.669,1725.677z"/>
		</g>
		<g>
			<path d="M300.302,1628.873l-3.425-2.066l53.299-88.351c-0.139-13.345-2.473-250.064,5.56-314.331
				c0.209-1.67,0.505-3.467,0.881-5.341c0.202-1.02,0.433-2.063,0.682-3.125l0.135-0.539
				c16.063-65.809,119.021-204.991,139.545-232.287c1.597-2.132,2.47-3.269,2.47-3.269l3.172,2.437
				c-0.004,0.006-0.867,1.128-2.442,3.233c-20.473,27.228-123.277,166.181-138.923,231.1v0.563l-0.183,0.194
				c-0.192,0.838-0.372,1.663-0.533,2.477c-0.358,1.782-0.639,3.48-0.835,5.054c-8.191,65.538-5.551,311.879-5.523,314.359
				l0.006,0.568L300.302,1628.873z"/>
		</g>
		<g>
			<g>
				<path d="M601.49,1141.458c-0.246,0-0.495-0.07-0.715-0.217c-10.529-7.02-25.253-10.625-25.4-10.661
					c-0.693-0.167-1.119-0.865-0.952-1.557c0.167-0.693,0.867-1.12,1.557-0.952c0.62,0.15,15.32,3.751,26.226,11.022
					c0.593,0.395,0.754,1.197,0.358,1.79C602.316,1141.257,601.907,1141.458,601.49,1141.458z"/>
			</g>
			<g>
				<path d="M593.746,1150.235c-0.246,0-0.495-0.07-0.715-0.217c-10.529-7.02-25.253-10.625-25.4-10.661
					c-0.693-0.167-1.119-0.865-0.952-1.558c0.167-0.692,0.867-1.116,1.557-0.952c0.62,0.15,15.32,3.751,26.227,11.023
					c0.593,0.395,0.753,1.197,0.358,1.79C594.572,1150.033,594.163,1150.235,593.746,1150.235z"/>
			</g>
		</g>
		<g>
			<path style="fill:#F07162;" d="M645.455,1054.874c1.272-3.282-0.549-7.183-4.209-8.855l-22.435-10.249
				c-3.666-1.675-7.808-0.498-9.456,2.612l-0.018-0.008l-0.145,0.317l-13.623,29.819l-0.145,0.318l0.018,0.008
				c-1.272,3.282,0.55,7.183,4.216,8.858l22.435,10.249c3.66,1.672,7.801,0.495,9.449-2.615l0.018,0.008l0.145-0.318l13.623-29.819
				l0.145-0.317L645.455,1054.874z"/>
			<path style="fill:#FDC9BC;" d="M645.455,1054.874c1.272-3.282-0.549-7.183-4.209-8.855l-22.435-10.249
				c-3.666-1.675-7.808-0.498-9.456,2.612l-0.018-0.008l-0.145,0.317l-1.177,2.576l0.018,0.008c1.648-3.11,5.79-4.287,9.456-2.612
				l22.435,10.249c3.66,1.672,5.481,5.573,4.209,8.855l0.018,0.008l1.177-2.576l0.145-0.317L645.455,1054.874z"/>
		</g>
		<g>
			<g>
				<g>
					<path d="M555.839,1562.034c0.708,0,1.397-0.363,1.784-1.016c13.012-21.957,10.818-62.56,10.718-64.278
						c-0.067-1.142-1.045-2.005-2.188-1.947c-1.142,0.066-2.014,1.045-1.948,2.188c0.024,0.408,2.219,41.061-10.146,61.926
						c-0.583,0.984-0.258,2.255,0.726,2.837C555.116,1561.941,555.481,1562.034,555.839,1562.034z"/>
				</g>
			</g>
			<g>
				<g>
					<path d="M530.327,1574.981c0.554,0,1.105-0.22,1.513-0.655c17.444-18.635,24.06-58.755,24.333-60.452
						c0.181-1.13-0.587-2.193-1.716-2.374c-1.132-0.186-2.193,0.587-2.374,1.715c-0.065,0.403-6.692,40.572-23.268,58.278
						c-0.781,0.836-0.738,2.147,0.097,2.928C529.312,1574.796,529.82,1574.981,530.327,1574.981z"/>
				</g>
			</g>
		</g>
	</g>
	<path style="fill:#FFFFFF;" d="M2133.214,1824.296l-2.783,1.807C2130.983,1825.435,2131.895,1824.838,2133.214,1824.296z"/>
	<g>
		<path style="fill:#F7AB48;" d="M1266.064,909.608c52.839,24.834,75.434,88.031,37.411,168.934
			c-22.871,48.662-70.117,106.407-106.491,121.834c-0.038,0.017-0.076,0.034-0.115,0.05c-0.044,0.019-0.089,0.039-0.133,0.058
			c0-0.002-0.001-0.005-0.001-0.005c-1.178,0.487-2.188,0.586-2.989,0.209l0,0c-6.235-2.93,1.765-34.383,10.652-62.63
			c9.377-29.802,6.732-62.087-7.567-89.865l0,0l67.561-100.89C1251.132,915.511,1239.327,897.042,1266.064,909.608z"/>
		<path style="fill:#21111D;" d="M1281.834,1116.294c-0.482-0.227-1.055-0.067-1.349,0.377
			c-23.811,35.896-56.189,70.894-83.825,82.664l-0.341,0.141c-0.916,0.381-1.627,0.459-2.111,0.231
			c-3.399-1.597-2.234-18.546,11.225-61.322c9.487-30.151,6.875-62.129-7.346-90.116l66.395-99.146l-0.154-4.767
			c-1.621-3.826-3.216-7.475-4.654-10.761c-5.6-12.795-10.436-23.846-7.935-26.281c0.933-0.909,3.707-1.187,11.465,2.189
			l-0.077-2.394c-6.943-2.925-10.882-3.314-12.9-1.349c-3.577,3.482,0.577,12.976,7.461,28.705
			c1.682,3.845,3.582,8.184,5.481,12.722l-67.594,100.937l0.293,0.568c14.213,27.612,16.876,59.236,7.497,89.043
			c-3.593,11.419-8.423,27.787-11.027,40.923c-3.668,18.505-1.216,21.996,0.947,23.013c0.743,0.349,1.604,0.422,2.571,0.22
			l0.02,0.131l1.374-0.578l-0.435-0.966l0.002,0l0.528,0.923l0.062-0.027c28.013-11.881,60.8-47.256,84.87-83.507
			C1282.641,1117.318,1282.429,1116.574,1281.834,1116.294L1281.834,1116.294z"/>
		<path style="fill:#F7AB48;" d="M1100.917,831.99c-52.839-24.834-115.914-1.901-153.938,79.002
			c-22.871,48.662-37.179,121.887-25.844,159.738c0.011,0.041,0.023,0.08,0.034,0.12c0.014,0.046,0.026,0.093,0.04,0.14
			c0.002-0.001,0.004-0.002,0.004-0.002c0.376,1.218,0.945,2.058,1.747,2.435l0,0c6.235,2.93,25.346-23.3,41.422-48.168
			c16.961-26.238,43.505-44.803,74.016-51.521l0,0l34.562-116.399C1105.901,847.254,1127.654,844.557,1100.917,831.99z"/>
		<g>
			<path style="fill:#21111D;" d="M922.498,1074.404c-0.743-0.349-1.349-0.965-1.81-1.839l-0.14,0.084l-0.457-1.624
				c-11.904-39.748,4.177-114.26,25.906-160.493c18.105-38.522,42.979-66.072,71.933-79.672c26.81-12.593,56.446-12.54,83.447,0.151
				c9.098,4.276,12.869,7.481,12.61,10.719c-0.398,4.975-10.359,7.835-26.86,12.573c-4.035,1.158-8.587,2.465-13.295,3.899
				l-34.578,116.454l-0.624,0.137c-30.329,6.677-56.375,24.807-73.339,51.05c-6.498,10.053-16.019,24.217-24.47,34.604
				C928.915,1075.08,924.662,1075.421,922.498,1074.404z M922.146,1070.329l0.104,0.339c0.293,0.949,0.686,1.545,1.17,1.773
				c3.399,1.598,15.704-10.115,40.05-47.776c17.159-26.545,43.447-44.94,74.069-51.851l34.546-116.346l0.557-0.17
				c4.922-1.507,9.684-2.874,13.886-4.08c13.425-3.854,25.018-7.182,25.297-10.661c0.114-1.424-1.766-4.069-11.37-8.583
				c-57.524-27.035-117.382,3.77-152.495,78.481C926.418,957.289,910.438,1031.031,922.146,1070.329z"/>
		</g>
		<path style="fill:#4CB7D8;" d="M1436.282,366.22c-3.346-11.829-14.707-17.684-26.12-13.452
			c-50.822,18.844-188.669,86.585-284.3,290.059c-46.41,98.746-93.363,265.888-97.229,343.448
			c-0.87,17.442,8.872,33.68,24.677,41.108l92.722,43.578c15.805,7.428,34.524,4.566,47.398-7.234
			c57.247-52.472,155.969-195.283,202.379-294.029C1483.942,582.177,1451.731,420.834,1436.282,366.22z"/>
		<path style="fill:#F7AB48;" d="M1352.462,511.308c34.295,16.118,69.148,25.584,101.688,28.775
			c4.22-81.347-9.361-143.79-17.869-173.862c-3.346-11.829-14.707-17.684-26.12-13.452c-28.933,10.728-86.074,37.321-147.571,95.767
			C1286.223,472.683,1316.761,494.529,1352.462,511.308z"/>
		
			<ellipse transform="matrix(0.7071 -0.7071 0.7071 0.7071 -81.8793 1100.6567)" style="fill:#F7AB48;" cx="1287.671" cy="649.165" rx="89.466" ry="89.466"/>
		
			<ellipse transform="matrix(0.8124 -0.5831 0.5831 0.8124 -136.9605 872.6322)" style="fill:#FDEACF;" cx="1287.671" cy="649.165" rx="64.576" ry="64.576"/>
		<g>
			<path style="fill:#21111D;" d="M1099.187,706.884c0.544,0.162,1.121-0.125,1.321-0.656c8.612-22.774,17.495-44.129,26.335-62.938
				c94.685-201.463,229.939-269.572,283.695-289.504c4.994-1.852,10.194-1.72,14.643,0.371c4.879,2.293,8.451,6.683,10.057,12.359
				c4.09,14.459,8.943,34.77,12.696,59.881c0.099,0.665,0.8,1.063,1.418,0.798l0,0c0.429-0.184,0.681-0.638,0.613-1.1
				c-3.888-26.33-8.886-46.9-12.64-60.169c-1.78-6.291-5.765-11.168-11.221-13.732c-4.979-2.34-10.776-2.497-16.32-0.441
				c-23.916,8.868-72.044,30.531-125.67,75.982c-64.363,54.552-117.937,126.765-159.233,214.632
				c-8.861,18.853-17.764,40.261-26.396,63.093C1098.262,706.047,1098.585,706.704,1099.187,706.884L1099.187,706.884z"/>
			<path style="fill:#21111D;" d="M1284.244,954.903c-0.478-0.431-1.225-0.348-1.599,0.175
				c-32.537,45.432-64.992,84.978-89.948,107.852c-12.603,11.552-30.74,14.32-46.204,7.052l-91.174-42.851
				c-0.542-0.255-1.188-0.022-1.443,0.52l0,0c-0.255,0.542-0.022,1.188,0.52,1.443l91.174,42.851
				c16.264,7.644,35.338,4.733,48.592-7.416c25.038-22.95,57.599-62.624,90.235-108.193
				C1284.718,955.889,1284.652,955.271,1284.244,954.903L1284.244,954.903z"/>
		</g>
		<path style="fill:#21111D;" d="M1223.082,651.038c0.618,0.017,1.117-0.485,1.108-1.103c-0.128-9.314,1.797-18.794,6.018-27.775
			c14.892-31.685,52.784-45.348,84.468-30.456c2.452,1.152,4.793,2.445,7.024,3.86c0.494,0.313,1.143,0.185,1.473-0.298l0.003-0.004
			c0.345-0.504,0.209-1.199-0.307-1.526c-2.309-1.465-4.732-2.803-7.27-3.996c-32.767-15.4-71.953-1.271-87.353,31.496
			c-4.367,9.293-6.357,19.101-6.223,28.737C1222.031,650.554,1222.502,651.022,1223.082,651.038L1223.082,651.038z"/>
		<path style="fill:#F7AB48;" d="M1058.361,1137.059L1058.361,1137.059c-10.836-5.093,13.181-79.012,18.274-89.848l31.641-67.323
			c5.093-10.836,57.775-100.109,68.611-95.016l0,0c10.836,5.093-24.278,102.623-29.37,113.459l-31.641,67.323
			C1110.782,1076.489,1069.197,1142.152,1058.361,1137.059z"/>
		<g>
			<path style="fill:#21111D;" d="M1328.149,570.597c24.966,12.839,41.38,36.285,46.314,62.24c0.102,0.537,0.588,0.911,1.132,0.865
				l0,0c0.631-0.053,1.085-0.642,0.966-1.264c-5.311-27.87-23.53-52.906-51.133-65.575c-40.527-18.6-87.956-4.649-112.434,31.081
				c-0.342,0.499-0.272,1.214,0.22,1.565c0.505,0.359,1.183,0.221,1.521-0.273C1239.349,563.24,1287.808,549.851,1328.149,570.597z"
				/>
			<path style="fill:#21111D;" d="M1347.607,715.742c-0.37-0.529-1.112-0.613-1.597-0.188
				c-25.634,22.461-63.167,28.998-95.933,13.599c-2.97-1.396-5.823-2.939-8.56-4.613c-0.517-0.316-1.189-0.152-1.497,0.371l0,0
				c-0.299,0.51-0.139,1.17,0.365,1.479c2.804,1.715,5.727,3.297,8.769,4.726c33.568,15.777,72.019,9.077,98.281-13.934
				C1347.852,716.818,1347.924,716.195,1347.607,715.742L1347.607,715.742z"/>
		</g>
		<g>
			<path style="fill:#21111D;" d="M1352.904,512.783c-3.227-1.517-6.465-3.11-9.714-4.789c-0.532-0.275-0.74-0.929-0.465-1.461
				c0.275-0.532,0.933-0.757,1.461-0.465c55.607,28.755,109.503,32.895,110.042,32.934c0.594,0.043,1.047,0.561,1.004,1.159
				c-0.043,0.597-0.561,1.047-1.159,1.004C1453.563,541.128,1405.325,537.42,1352.904,512.783z"/>
		</g>
		<path style="fill:#21111D;" d="M1455.102,540.049c1.073-17.195,1.57-35.586,0.552-51.45c-0.038-0.598-0.554-1.052-1.151-1.012
			c-0.597,0.038-1.051,0.553-1.012,1.151c1.012,15.78,0.516,34.087-0.553,51.21L1455.102,540.049z"/>
	</g>
</g>
</svg>
