<svg width="57" height="16" viewBox="0 0 57 16" fill="none" xmlns="http://www.w3.org/2000/svg">
<path d="M3.16053 0.584733V15.1302H0.965931V0.584733H3.16053Z" fill="#6A54AF"/>
<path d="M14.3608 6.88445L12.4361 7.22536C12.3556 6.97915 12.2278 6.74477 12.0526 6.52223C11.8821 6.2997 11.6501 6.1174 11.3566 5.97536C11.063 5.83331 10.696 5.76229 10.2557 5.76229C9.65438 5.76229 9.15248 5.89723 8.75002 6.16712C8.34756 6.43227 8.14633 6.77555 8.14633 7.19695C8.14633 7.56153 8.28127 7.85509 8.55116 8.07763C8.82105 8.30017 9.25665 8.48246 9.85798 8.62451L11.5909 9.02223C12.5947 9.25424 13.3428 9.61172 13.8352 10.0947C14.3277 10.5776 14.5739 11.205 14.5739 11.9768C14.5739 12.6302 14.3845 13.2126 14.0057 13.7239C13.6317 14.2306 13.1085 14.6283 12.4361 14.9171C11.7685 15.2059 10.9943 15.3504 10.1137 15.3504C8.89207 15.3504 7.89538 15.0899 7.1236 14.5691C6.35182 14.0435 5.87834 13.2978 5.70315 12.3319L7.7557 12.0194C7.88355 12.5544 8.14633 12.9593 8.54406 13.2339C8.94178 13.5038 9.46025 13.6387 10.0995 13.6387C10.7955 13.6387 11.3518 13.4943 11.7685 13.2055C12.1852 12.9119 12.3935 12.5544 12.3935 12.133C12.3935 11.7921 12.2656 11.5057 12.01 11.2737C11.759 11.0416 11.3731 10.8665 10.8523 10.7481L9.0057 10.3433C7.98771 10.1112 7.23487 9.74193 6.74718 9.2353C6.26423 8.72867 6.02275 8.0871 6.02275 7.31059C6.02275 6.66665 6.20267 6.1032 6.56252 5.62024C6.92237 5.13729 7.41953 4.76087 8.054 4.49098C8.68847 4.21636 9.41527 4.07905 10.2344 4.07905C11.4134 4.07905 12.3414 4.33473 13.0185 4.8461C13.6956 5.35273 14.143 6.03218 14.3608 6.88445ZM19.0323 8.65291V15.1302H16.9088V0.584733H19.0039V5.99666H19.1389C19.3946 5.40954 19.7852 4.94316 20.3107 4.59752C20.8363 4.25187 21.5229 4.07905 22.3704 4.07905C23.1185 4.07905 23.7719 4.23293 24.3306 4.5407C24.8941 4.84846 25.3297 5.30774 25.6375 5.91854C25.95 6.5246 26.1062 7.28218 26.1062 8.19127V15.1302H23.9826V8.44695C23.9826 7.64676 23.7767 7.02649 23.3647 6.58615C22.9528 6.14108 22.3799 5.91854 21.646 5.91854C21.1441 5.91854 20.6943 6.02507 20.2965 6.23814C19.9035 6.45121 19.5934 6.76371 19.3661 7.17564C19.1436 7.58284 19.0323 8.07526 19.0323 8.65291ZM32.1147 15.3717C31.4234 15.3717 30.7984 15.2438 30.2397 14.9881C29.681 14.7277 29.2383 14.3513 28.9116 13.8589C28.5896 13.3665 28.4286 12.7628 28.4286 12.0478C28.4286 11.4323 28.547 10.9256 28.7838 10.5279C29.0205 10.1302 29.3401 9.81532 29.7426 9.58331C30.145 9.35131 30.5948 9.17612 31.092 9.05774C31.5892 8.93937 32.0958 8.84941 32.6119 8.78786C33.2653 8.7121 33.7956 8.65055 34.2028 8.6032C34.61 8.55112 34.9059 8.46826 35.0906 8.35462C35.2752 8.24098 35.3676 8.05632 35.3676 7.80064V7.75093C35.3676 7.13066 35.1924 6.65007 34.842 6.30916C34.4964 5.96826 33.9803 5.7978 33.2937 5.7978C32.5787 5.7978 32.0153 5.95642 31.6034 6.27365C31.1962 6.58615 30.9144 6.93417 30.7582 7.31769L28.7625 6.86314C28.9992 6.20026 29.3448 5.66523 29.7994 5.25803C30.2587 4.8461 30.7866 4.5478 31.3832 4.36314C31.9798 4.17375 32.6071 4.07905 33.2653 4.07905C33.7009 4.07905 34.1625 4.13114 34.6502 4.2353C35.1427 4.33473 35.6019 4.51939 36.0281 4.78928C36.4589 5.05916 36.8117 5.44506 37.0863 5.94695C37.3609 6.44411 37.4982 7.09042 37.4982 7.88587V15.1302H35.4244V13.6387H35.3392C35.2018 13.9133 34.9959 14.1832 34.7213 14.4484C34.4466 14.7135 34.0939 14.9337 33.663 15.1089C33.2321 15.2841 32.716 15.3717 32.1147 15.3717ZM32.5764 13.6671C33.1635 13.6671 33.6654 13.5511 34.0821 13.3191C34.5035 13.0871 34.8231 12.7841 35.0409 12.41C35.2634 12.0312 35.3747 11.6264 35.3747 11.1955V9.78928C35.2989 9.86504 35.1521 9.93606 34.9343 10.0023C34.7213 10.0639 34.4774 10.1184 34.2028 10.1657C33.9282 10.2083 33.6607 10.2486 33.4002 10.2864C33.1398 10.3196 32.922 10.348 32.7468 10.3717C32.3349 10.4237 31.9585 10.5113 31.6176 10.6344C31.2814 10.7576 31.0115 10.9351 30.8079 11.1671C30.609 11.3944 30.5096 11.6974 30.5096 12.0762C30.5096 12.6018 30.7037 12.9995 31.092 13.2694C31.4803 13.5345 31.975 13.6671 32.5764 13.6671ZM40.3267 15.1302V4.2211H42.3793V5.95405H42.4929C42.6918 5.36693 43.0422 4.90528 43.5441 4.56911C44.0507 4.2282 44.6236 4.05774 45.2628 4.05774C45.3954 4.05774 45.5516 4.06248 45.7316 4.07195C45.9162 4.08142 46.0606 4.09326 46.1648 4.10746V6.13871C46.0796 6.11504 45.9281 6.08899 45.7102 6.06059C45.4924 6.02744 45.2746 6.01087 45.0568 6.01087C44.5549 6.01087 44.1075 6.1174 43.7145 6.33047C43.3263 6.53881 43.0185 6.83 42.7912 7.20405C42.5639 7.57337 42.4503 7.99477 42.4503 8.46826V15.1302H40.3267ZM51.0796 15.3717C50.3883 15.3717 49.7633 15.2438 49.2046 14.9881C48.6459 14.7277 48.2031 14.3513 47.8764 13.8589C47.5545 13.3665 47.3935 12.7628 47.3935 12.0478C47.3935 11.4323 47.5119 10.9256 47.7486 10.5279C47.9853 10.1302 48.3049 9.81532 48.7074 9.58331C49.1099 9.35131 49.5597 9.17612 50.0568 9.05774C50.554 8.93937 51.0606 8.84941 51.5767 8.78786C52.2301 8.7121 52.7604 8.65055 53.1676 8.6032C53.5748 8.55112 53.8708 8.46826 54.0554 8.35462C54.2401 8.24098 54.3324 8.05632 54.3324 7.80064V7.75093C54.3324 7.13066 54.1572 6.65007 53.8068 6.30916C53.4612 5.96826 52.9451 5.7978 52.2585 5.7978C51.5436 5.7978 50.9801 5.95642 50.5682 6.27365C50.161 6.58615 49.8793 6.93417 49.723 7.31769L47.7273 6.86314C47.964 6.20026 48.3097 5.66523 48.7642 5.25803C49.2235 4.8461 49.7514 4.5478 50.348 4.36314C50.9446 4.17375 51.572 4.07905 52.2301 4.07905C52.6657 4.07905 53.1274 4.13114 53.6151 4.2353C54.1075 4.33473 54.5668 4.51939 54.9929 4.78928C55.4238 5.05916 55.7765 5.44506 56.0512 5.94695C56.3258 6.44411 56.4631 7.09042 56.4631 7.88587V15.1302H54.3892V13.6387H54.304C54.1667 13.9133 53.9607 14.1832 53.6861 14.4484C53.4115 14.7135 53.0587 14.9337 52.6279 15.1089C52.197 15.2841 51.6809 15.3717 51.0796 15.3717ZM51.5412 13.6671C52.1283 13.6671 52.6302 13.5511 53.0469 13.3191C53.4683 13.0871 53.7879 12.7841 54.0057 12.41C54.2282 12.0312 54.3395 11.6264 54.3395 11.1955V9.78928C54.2638 9.86504 54.117 9.93606 53.8992 10.0023C53.6861 10.0639 53.4423 10.1184 53.1676 10.1657C52.893 10.2083 52.6255 10.2486 52.3651 10.2864C52.1047 10.3196 51.8869 10.348 51.7117 10.3717C51.2997 10.4237 50.9233 10.5113 50.5824 10.6344C50.2462 10.7576 49.9763 10.9351 49.7727 11.1671C49.5739 11.3944 49.4745 11.6974 49.4745 12.0762C49.4745 12.6018 49.6686 12.9995 50.0568 13.2694C50.4451 13.5345 50.9399 13.6671 51.5412 13.6671Z" fill="black"/>
</svg>
