<?xml version="1.0" encoding="iso-8859-1"?>
<!-- Uploaded to: SVG Repo, www.svgrepo.com, Generator: SVG Repo Mixer Tools -->
<svg height="800px" width="800px" version="1.1" id="Layer_1" xmlns="http://www.w3.org/2000/svg" xmlns:xlink="http://www.w3.org/1999/xlink" 
	 viewBox="0 0 512.001 512.001" xml:space="preserve">
<path style="fill:#9E9A9A;" d="M392.653,512.001H149.532c-42.762,0-77.55-34.788-77.55-77.548s34.788-77.548,77.55-77.548h284.757
	c31.495,0,57.117-25.622,57.117-57.117s-25.622-57.117-57.117-57.117H82.199c-5.643,0-10.216-4.574-10.216-10.216
	s4.573-10.216,10.216-10.216h352.089c42.76,0,77.548,34.788,77.548,77.548s-34.788,77.548-77.548,77.548H149.532
	c-31.494,0-57.118,25.622-57.118,57.117s25.624,57.117,57.118,57.117h243.121c5.643,0,10.216,4.574,10.216,10.216
	S398.295,512.001,392.653,512.001z"/>
<path style="fill:#F2CA7F;" d="M166.836,65.374c-18.984-87.165-144.787-87.165-163.771,0c-1.9,8.724-2.901,17.784-2.901,27.077
	c0,55.278,35.413,102.277,84.787,119.571c49.373-17.293,84.787-64.293,84.787-119.571C169.737,83.157,168.736,74.098,166.836,65.374
	z"/>
<path style="fill:#8CC1EA;" d="M474.539,330.795c-18.984-87.165-144.787-87.165-163.771,0c-1.9,8.723-2.901,17.782-2.901,27.076
	c0,55.278,35.413,102.277,84.787,119.571c49.373-17.293,84.787-64.292,84.787-119.571
	C477.44,348.579,476.439,339.52,474.539,330.795z"/>
<circle style="fill:#79B1D6;" cx="84.955" cy="85.64" r="36.775"/>
<circle style="fill:#E0B76E;" cx="392.653" cy="351.069" r="36.775"/>
</svg>